<svg id="svg" version="1.1" width="400" height="189.54703832752614" viewBox="0 0 400 189.54703832752614" xmlns="http://www.w3.org/2000/svg" xmlns:xlink="http://www.w3.org/1999/xlink"><g id="svgg"><path id="path0" d="M158.294 4.471 C 157.616 4.507,155.057 4.633,152.607 4.752 C 150.156 4.870,148.066 5.033,147.962 5.113 C 147.858 5.192,147.090 5.315,146.256 5.384 C 143.706 5.596,140.211 6.065,139.810 6.249 C 139.602 6.344,138.322 6.565,136.967 6.738 C 135.611 6.912,134.417 7.118,134.313 7.198 C 134.209 7.277,133.100 7.493,131.848 7.677 C 130.597 7.862,129.531 8.071,129.479 8.141 C 129.427 8.212,128.275 8.466,126.919 8.707 C 125.564 8.947,124.370 9.208,124.265 9.285 C 124.161 9.363,123.265 9.579,122.275 9.766 C 121.284 9.953,120.431 10.164,120.379 10.235 C 120.327 10.306,119.346 10.560,118.199 10.799 C 117.052 11.038,116.071 11.291,116.019 11.362 C 115.967 11.432,115.199 11.643,114.313 11.830 C 113.427 12.018,112.659 12.231,112.607 12.304 C 112.555 12.377,111.620 12.626,110.530 12.858 C 109.440 13.089,108.501 13.344,108.445 13.424 C 108.388 13.505,107.659 13.726,106.825 13.917 C 105.991 14.108,105.223 14.331,105.118 14.414 C 105.014 14.496,104.374 14.703,103.697 14.874 C 103.019 15.045,102.209 15.298,101.896 15.437 C 101.583 15.575,100.687 15.839,99.905 16.024 C 99.123 16.210,98.441 16.420,98.389 16.491 C 98.336 16.563,97.697 16.780,96.967 16.972 C 96.237 17.165,95.597 17.382,95.545 17.455 C 95.493 17.528,94.682 17.781,93.744 18.018 C 92.806 18.255,91.995 18.506,91.943 18.577 C 91.856 18.696,90.804 19.022,89.668 19.284 C 89.408 19.344,89.152 19.450,89.100 19.519 C 89.047 19.589,88.301 19.844,87.441 20.086 C 86.581 20.328,85.877 20.581,85.877 20.648 C 85.877 20.715,85.258 20.927,84.502 21.121 C 83.746 21.315,83.080 21.548,83.021 21.639 C 82.961 21.731,82.364 21.971,81.694 22.174 C 80.011 22.682,77.519 23.567,77.062 23.818 C 76.853 23.933,76.235 24.139,75.687 24.277 C 75.140 24.414,74.692 24.584,74.692 24.654 C 74.692 24.724,73.988 24.980,73.128 25.222 C 72.268 25.464,71.521 25.722,71.469 25.796 C 71.417 25.870,70.905 26.068,70.332 26.235 C 69.758 26.403,69.033 26.662,68.720 26.811 C 68.408 26.959,67.640 27.227,67.014 27.405 C 66.389 27.584,65.781 27.805,65.664 27.896 C 65.547 27.988,64.993 28.199,64.432 28.365 C 63.871 28.531,63.370 28.727,63.318 28.800 C 63.265 28.873,62.583 29.130,61.801 29.371 C 61.019 29.613,60.294 29.873,60.190 29.951 C 60.085 30.029,59.531 30.243,58.957 30.427 C 58.384 30.611,57.829 30.825,57.725 30.903 C 57.621 30.981,57.024 31.191,56.398 31.370 C 55.773 31.550,55.218 31.759,55.166 31.836 C 55.114 31.913,54.395 32.158,53.569 32.381 C 52.743 32.603,52.018 32.853,51.958 32.936 C 51.856 33.076,50.574 33.472,49.479 33.701 C 49.218 33.756,48.962 33.862,48.910 33.936 C 48.792 34.105,46.655 34.644,45.449 34.810 C 44.954 34.878,44.550 34.994,44.550 35.068 C 44.550 35.359,39.860 35.675,35.123 35.704 L 30.151 35.735 29.682 36.209 C 29.163 36.732,29.133 37.051,29.268 40.468 C 29.344 42.368,29.121 44.729,28.849 44.921 C 28.768 44.977,28.540 45.578,28.341 46.256 C 28.143 46.934,27.923 47.531,27.853 47.583 C 27.783 47.635,27.527 48.147,27.285 48.720 C 27.043 49.294,26.782 49.807,26.706 49.861 C 26.491 50.012,25.522 51.930,25.128 52.986 C 24.933 53.507,24.718 53.976,24.650 54.028 C 24.582 54.081,24.369 54.635,24.177 55.261 C 23.985 55.886,23.772 56.441,23.703 56.493 C 23.635 56.545,23.421 57.185,23.228 57.915 C 23.036 58.645,22.819 59.284,22.748 59.336 C 22.677 59.389,22.428 60.242,22.195 61.232 C 21.962 62.223,21.699 63.204,21.612 63.412 C 21.354 64.029,21.219 64.675,21.116 65.782 C 21.062 66.355,20.931 67.105,20.824 67.449 C 20.717 67.792,20.681 68.208,20.744 68.373 C 20.808 68.538,20.763 68.790,20.646 68.931 C 20.357 69.279,20.320 72.613,20.598 73.193 C 20.718 73.444,20.918 74.270,21.042 75.028 C 21.166 75.787,21.384 76.523,21.525 76.664 C 21.667 76.805,21.930 77.261,22.110 77.677 C 22.401 78.348,24.130 79.848,24.332 79.604 C 24.635 79.238,25.069 77.994,25.340 76.711 C 25.519 75.861,25.730 75.122,25.807 75.067 C 25.884 75.013,26.091 74.331,26.266 73.551 C 26.441 72.771,26.651 72.047,26.732 71.943 C 26.813 71.839,27.073 71.028,27.309 70.142 C 27.545 69.256,27.792 68.488,27.859 68.436 C 28.011 68.318,28.626 66.400,28.626 66.045 C 28.626 65.900,28.701 65.782,28.794 65.782 C 28.886 65.782,29.158 65.185,29.397 64.455 C 29.636 63.725,29.890 63.128,29.961 63.128 C 30.032 63.128,30.238 62.659,30.418 62.085 C 30.599 61.512,30.802 61.042,30.871 61.041 C 30.939 61.040,31.204 60.570,31.458 59.998 C 31.713 59.426,31.973 58.957,32.037 58.957 C 32.100 58.957,32.306 58.531,32.493 58.009 C 32.681 57.488,32.898 57.062,32.976 57.062 C 33.054 57.062,33.279 56.699,33.475 56.256 C 33.671 55.813,33.946 55.332,34.084 55.188 C 34.223 55.044,34.468 54.596,34.629 54.193 C 34.791 53.790,34.989 53.460,35.070 53.460 C 35.151 53.460,35.359 53.161,35.532 52.796 C 35.705 52.431,35.907 52.133,35.981 52.133 C 36.054 52.133,36.326 51.727,36.584 51.232 C 36.843 50.737,37.205 50.220,37.390 50.084 C 37.574 49.948,37.725 49.752,37.725 49.649 C 37.725 49.433,40.858 46.279,41.422 45.929 C 41.630 45.799,41.950 45.639,42.133 45.573 C 42.315 45.507,42.464 45.374,42.464 45.276 C 42.464 45.179,42.784 44.966,43.175 44.803 C 43.566 44.640,43.929 44.440,43.981 44.359 C 44.086 44.194,46.370 43.412,46.745 43.412 C 46.876 43.412,47.011 43.329,47.046 43.228 C 47.081 43.127,47.775 42.945,48.589 42.824 C 49.404 42.703,50.179 42.495,50.313 42.361 C 50.447 42.228,51.743 41.937,53.193 41.714 C 54.643 41.492,55.963 41.238,56.127 41.149 C 56.291 41.060,57.827 40.845,59.540 40.671 C 61.253 40.497,62.825 40.282,63.033 40.192 C 63.242 40.103,63.540 40.031,63.697 40.033 C 63.853 40.035,65.261 39.926,66.825 39.791 C 72.793 39.276,97.569 39.587,98.009 40.182 C 98.062 40.253,100.237 40.492,102.844 40.715 C 113.455 41.620,119.152 42.162,119.242 42.276 C 119.294 42.343,121.384 42.549,123.886 42.735 C 126.389 42.920,128.607 43.145,128.815 43.233 C 129.024 43.321,131.493 43.568,134.301 43.782 C 137.789 44.047,139.462 44.245,139.577 44.407 C 139.711 44.597,139.764 44.597,139.841 44.408 C 139.957 44.120,140.889 44.093,141.165 44.369 C 141.275 44.478,142.081 44.600,142.957 44.640 C 150.755 44.994,154.058 45.195,154.224 45.324 C 154.331 45.407,156.166 45.527,158.300 45.589 C 160.434 45.652,163.020 45.785,164.047 45.885 C 165.074 45.984,165.984 46.023,166.070 45.969 C 166.322 45.813,176.923 46.253,177.144 46.428 C 177.255 46.516,177.517 46.519,177.725 46.435 C 178.243 46.227,181.113 46.216,181.336 46.422 C 181.655 46.715,202.979 46.998,230.358 47.072 C 245.089 47.111,249.118 47.173,249.346 47.362 C 249.541 47.523,249.674 47.537,249.757 47.403 C 249.918 47.142,253.839 47.133,253.839 47.393 C 253.839 47.511,254.834 47.583,256.445 47.583 C 261.940 47.583,273.412 48.063,278.768 48.517 C 279.915 48.614,282.858 48.843,285.308 49.025 C 287.758 49.207,289.806 49.416,289.858 49.489 C 289.954 49.624,293.021 49.987,295.450 50.151 C 296.180 50.200,296.948 50.320,297.156 50.418 C 297.365 50.516,299.071 50.783,300.948 51.012 C 302.825 51.240,304.403 51.488,304.455 51.562 C 304.507 51.635,305.659 51.848,307.014 52.035 C 308.370 52.222,309.521 52.434,309.573 52.506 C 309.626 52.579,310.905 52.835,312.417 53.075 C 313.929 53.316,315.209 53.573,315.261 53.647 C 315.313 53.721,315.697 53.833,316.114 53.894 C 318.085 54.187,319.341 54.443,319.520 54.590 C 319.627 54.679,320.526 54.898,321.517 55.077 C 322.507 55.256,323.573 55.506,323.886 55.634 C 324.199 55.761,325.244 56.025,326.209 56.220 C 327.173 56.415,327.962 56.633,327.962 56.704 C 327.962 56.776,328.623 56.980,329.431 57.158 C 330.239 57.336,330.986 57.549,331.090 57.631 C 331.194 57.713,332.005 57.973,332.891 58.209 C 333.777 58.445,334.545 58.697,334.597 58.769 C 334.649 58.841,335.332 59.054,336.114 59.242 C 336.896 59.430,337.578 59.643,337.630 59.714 C 337.682 59.786,338.450 60.039,339.336 60.276 C 340.223 60.512,340.991 60.764,341.043 60.836 C 341.095 60.908,341.692 61.129,342.370 61.327 C 343.047 61.526,343.650 61.757,343.709 61.842 C 343.769 61.926,344.450 62.171,345.223 62.385 C 345.996 62.599,346.673 62.846,346.727 62.932 C 346.781 63.019,347.315 63.233,347.915 63.407 C 348.514 63.581,349.005 63.784,349.005 63.858 C 349.005 63.932,349.410 64.109,349.905 64.250 C 350.400 64.391,351.062 64.654,351.374 64.834 C 351.687 65.014,352.412 65.322,352.986 65.519 C 353.559 65.715,354.141 65.983,354.279 66.113 C 354.417 66.244,354.608 66.351,354.705 66.351 C 354.801 66.351,355.539 66.655,356.345 67.027 C 357.151 67.400,358.047 67.752,358.336 67.809 C 358.626 67.867,358.863 67.982,358.863 68.065 C 358.863 68.147,359.246 68.362,359.716 68.541 C 360.185 68.720,360.569 68.922,360.569 68.990 C 360.569 69.057,361.123 69.320,361.801 69.573 C 362.479 69.827,363.033 70.088,363.033 70.154 C 363.033 70.220,363.374 70.428,363.791 70.616 C 364.209 70.804,364.550 71.033,364.550 71.124 C 364.550 71.215,364.771 71.373,365.042 71.476 C 365.313 71.579,365.577 71.827,365.629 72.027 C 365.682 72.227,365.851 72.439,366.005 72.499 C 366.663 72.751,364.866 75.640,364.051 75.640 C 363.968 75.640,363.726 75.803,363.514 76.002 C 362.226 77.213,361.853 77.536,361.739 77.539 C 361.527 77.545,358.104 81.065,358.104 81.277 C 358.104 81.385,357.891 81.613,357.630 81.784 C 357.370 81.954,357.156 82.217,357.156 82.367 C 357.156 82.518,356.986 82.732,356.777 82.844 C 356.569 82.955,356.398 83.139,356.398 83.251 C 356.398 83.364,356.100 83.863,355.735 84.360 C 355.370 84.857,355.071 85.353,355.071 85.462 C 355.071 85.571,354.964 85.777,354.834 85.919 C 354.489 86.296,353.934 87.383,353.934 87.680 C 353.934 87.820,353.814 88.055,353.668 88.201 C 353.521 88.347,353.260 88.885,353.087 89.395 C 352.913 89.905,352.700 90.410,352.613 90.517 C 352.525 90.624,352.258 91.436,352.019 92.322 C 351.780 93.209,351.532 93.976,351.467 94.028 C 351.402 94.081,351.192 94.806,351.000 95.640 C 350.808 96.474,350.601 97.199,350.539 97.251 C 350.477 97.303,350.190 98.242,349.902 99.336 C 349.613 100.431,349.299 101.583,349.202 101.896 C 349.106 102.209,348.923 102.848,348.795 103.318 C 348.668 103.787,348.473 104.230,348.363 104.302 C 347.800 104.673,349.224 104.735,357.976 104.724 C 367.247 104.711,371.384 104.513,371.532 104.073 C 371.567 103.970,371.713 103.886,371.856 103.886 C 374.807 103.886,374.542 98.797,371.565 98.294 C 371.143 98.223,370.693 98.065,370.565 97.944 C 370.437 97.823,370.032 97.567,369.666 97.374 C 368.756 96.895,368.246 95.802,368.246 94.325 C 368.246 93.201,368.804 90.995,369.088 90.995 C 369.167 90.995,369.385 90.654,369.573 90.237 C 369.762 89.820,369.972 89.479,370.041 89.479 C 370.111 89.479,370.359 89.137,370.593 88.720 C 370.828 88.303,371.089 87.962,371.175 87.962 C 371.260 87.962,371.380 87.813,371.442 87.630 C 371.611 87.125,371.992 86.594,372.464 86.202 C 372.699 86.008,372.891 85.762,372.891 85.655 C 372.891 85.548,373.126 85.224,373.412 84.935 C 373.699 84.647,374.403 83.883,374.976 83.239 C 375.550 82.594,376.382 81.676,376.825 81.199 C 377.268 80.722,377.632 80.278,377.634 80.213 C 377.636 80.148,377.935 79.754,378.297 79.339 C 378.660 78.923,378.957 78.479,378.957 78.353 C 378.957 78.226,379.089 78.050,379.250 77.960 C 380.014 77.532,380.441 72.862,379.862 71.264 C 379.607 70.561,377.483 68.246,377.093 68.246 C 376.971 68.246,376.872 68.170,376.872 68.076 C 376.872 67.982,376.526 67.725,376.103 67.505 C 375.680 67.284,375.152 66.935,374.930 66.727 C 374.708 66.520,374.417 66.351,374.284 66.351 C 374.152 66.351,373.891 66.192,373.704 65.999 C 373.518 65.805,372.960 65.495,372.464 65.310 C 371.969 65.124,371.563 64.920,371.562 64.856 C 371.561 64.792,371.177 64.571,370.709 64.365 C 370.241 64.159,369.858 63.930,369.858 63.857 C 369.858 63.783,369.666 63.663,369.431 63.591 C 369.197 63.520,368.408 63.184,367.678 62.846 C 366.948 62.509,366.159 62.172,365.924 62.099 C 365.690 62.025,365.498 61.891,365.498 61.801 C 365.498 61.711,365.306 61.577,365.071 61.503 C 364.836 61.430,364.030 61.083,363.279 60.732 C 362.528 60.382,361.830 60.095,361.728 60.095 C 361.627 60.095,361.429 59.980,361.289 59.840 C 361.149 59.700,360.588 59.437,360.043 59.256 C 359.498 59.075,359.052 58.863,359.052 58.785 C 359.052 58.706,358.455 58.443,357.725 58.199 C 356.995 57.955,356.398 57.689,356.398 57.608 C 356.398 57.527,355.929 57.312,355.355 57.131 C 354.782 56.951,354.313 56.740,354.313 56.664 C 354.313 56.587,353.716 56.340,352.988 56.114 C 352.259 55.889,351.619 55.634,351.565 55.547 C 351.512 55.461,350.999 55.243,350.426 55.063 C 349.853 54.882,349.384 54.675,349.384 54.601 C 349.384 54.528,348.868 54.311,348.237 54.120 C 347.607 53.930,347.051 53.709,347.003 53.631 C 346.955 53.553,346.276 53.299,345.496 53.068 C 344.715 52.836,344.076 52.582,344.076 52.503 C 344.076 52.424,343.628 52.255,343.081 52.128 C 342.533 52.000,341.737 51.740,341.311 51.549 C 340.885 51.359,339.989 51.054,339.320 50.872 C 338.651 50.689,338.062 50.485,338.009 50.417 C 337.957 50.350,337.403 50.140,336.777 49.951 C 336.152 49.761,335.552 49.539,335.444 49.458 C 335.336 49.377,334.568 49.125,333.737 48.899 C 332.907 48.673,332.136 48.415,332.025 48.325 C 331.913 48.235,331.232 48.025,330.510 47.858 C 329.789 47.691,329.155 47.486,329.102 47.403 C 329.048 47.320,328.367 47.108,327.588 46.932 C 326.809 46.755,326.084 46.539,325.977 46.450 C 325.870 46.361,324.972 46.101,323.981 45.871 C 322.991 45.640,322.095 45.385,321.991 45.303 C 321.886 45.221,321.033 45.004,320.095 44.821 C 319.156 44.637,318.346 44.431,318.294 44.363 C 318.242 44.295,317.218 44.040,316.019 43.796 C 314.820 43.551,313.754 43.290,313.649 43.215 C 313.545 43.139,312.607 42.928,311.564 42.746 C 310.521 42.563,309.583 42.352,309.479 42.276 C 309.374 42.200,308.009 41.938,306.445 41.693 C 304.882 41.449,303.559 41.191,303.507 41.121 C 303.455 41.051,302.303 40.841,300.948 40.655 C 299.592 40.468,298.441 40.260,298.389 40.192 C 298.336 40.124,296.929 39.918,295.261 39.736 C 293.592 39.553,291.929 39.322,291.564 39.223 C 290.763 39.006,286.283 38.510,283.791 38.363 C 282.801 38.305,281.948 38.191,281.896 38.111 C 281.789 37.947,272.762 37.343,270.427 37.343 C 269.592 37.344,268.611 37.266,268.246 37.171 C 267.882 37.076,264.938 36.947,261.706 36.883 C 258.474 36.820,255.275 36.724,254.597 36.669 C 252.540 36.504,249.958 36.156,249.858 36.029 C 249.806 35.964,248.931 35.749,247.915 35.553 C 246.898 35.357,246.066 35.139,246.066 35.069 C 246.066 34.999,245.384 34.739,244.550 34.491 C 243.716 34.243,243.033 33.978,243.033 33.902 C 243.033 33.826,242.564 33.616,241.991 33.435 C 241.417 33.254,240.948 33.048,240.948 32.977 C 240.948 32.906,240.543 32.698,240.047 32.514 C 239.552 32.331,239.056 32.069,238.946 31.933 C 238.835 31.796,238.366 31.534,237.903 31.350 C 237.440 31.166,236.946 30.902,236.806 30.763 C 236.665 30.624,236.260 30.389,235.905 30.241 C 235.551 30.093,235.261 29.896,235.261 29.803 C 235.261 29.710,234.910 29.519,234.482 29.377 C 234.054 29.236,233.665 29.019,233.617 28.894 C 233.569 28.770,233.152 28.523,232.689 28.347 C 232.227 28.170,231.848 27.962,231.848 27.885 C 231.848 27.808,231.400 27.543,230.853 27.296 C 230.306 27.048,229.692 26.692,229.490 26.503 C 229.288 26.315,229.017 26.161,228.888 26.161 C 228.758 26.161,228.540 26.050,228.402 25.914 C 228.264 25.779,227.725 25.465,227.204 25.217 C 226.682 24.968,226.213 24.712,226.161 24.647 C 226.109 24.582,225.768 24.413,225.403 24.273 C 225.038 24.132,224.649 23.908,224.538 23.775 C 224.428 23.642,223.958 23.382,223.496 23.197 C 223.033 23.012,222.503 22.721,222.317 22.549 C 222.132 22.378,221.642 22.126,221.227 21.989 C 220.813 21.852,220.474 21.685,220.474 21.618 C 220.474 21.551,219.642 21.078,218.626 20.567 C 217.609 20.056,216.735 19.584,216.682 19.518 C 216.630 19.452,216.225 19.239,215.782 19.046 C 215.339 18.853,214.976 18.640,214.976 18.573 C 214.976 18.505,214.507 18.252,213.934 18.009 C 213.360 17.767,212.891 17.506,212.891 17.429 C 212.891 17.352,212.464 17.136,211.943 16.948 C 211.422 16.761,210.995 16.551,210.995 16.481 C 210.995 16.412,210.590 16.202,210.095 16.015 C 209.600 15.828,209.012 15.535,208.790 15.364 C 208.568 15.192,208.035 14.936,207.605 14.794 C 207.176 14.652,206.825 14.476,206.825 14.403 C 206.825 14.330,206.419 14.115,205.924 13.926 C 205.429 13.737,204.925 13.483,204.805 13.363 C 204.685 13.242,204.109 12.994,203.525 12.810 C 202.942 12.627,202.464 12.413,202.464 12.335 C 202.464 12.257,202.102 12.087,201.659 11.957 C 201.216 11.827,200.674 11.606,200.454 11.467 C 200.235 11.327,199.425 11.023,198.654 10.790 C 197.882 10.558,197.209 10.305,197.156 10.229 C 197.104 10.153,196.507 9.938,195.829 9.751 C 195.152 9.564,194.555 9.354,194.502 9.284 C 194.450 9.213,194.194 9.106,193.934 9.045 C 193.673 8.984,192.820 8.785,192.038 8.603 C 191.256 8.421,190.568 8.202,190.510 8.117 C 190.452 8.032,189.684 7.820,188.804 7.645 C 187.924 7.471,187.161 7.274,187.109 7.207 C 187.057 7.140,186.118 6.927,185.024 6.735 C 183.929 6.542,182.895 6.315,182.726 6.232 C 182.350 6.045,176.916 5.308,175.918 5.308 C 175.522 5.308,175.169 5.232,175.134 5.139 C 175.002 4.783,162.061 4.270,158.294 4.471 M170.711 14.109 C 171.754 14.171,172.777 14.297,172.986 14.389 C 173.194 14.480,175.068 14.739,177.150 14.964 C 179.232 15.188,180.981 15.441,181.036 15.525 C 181.092 15.609,182.073 15.822,183.217 15.999 C 184.360 16.176,185.341 16.388,185.397 16.471 C 185.452 16.554,186.244 16.776,187.156 16.966 C 188.069 17.155,188.815 17.369,188.815 17.442 C 188.815 17.514,189.540 17.764,190.427 17.999 C 191.313 18.233,192.038 18.489,192.038 18.568 C 192.038 18.647,192.592 18.862,193.270 19.045 C 193.948 19.228,194.502 19.440,194.502 19.515 C 194.502 19.590,195.100 19.851,195.829 20.095 C 196.559 20.339,197.156 20.591,197.156 20.656 C 197.156 20.721,197.626 20.934,198.199 21.129 C 198.773 21.324,199.242 21.549,199.242 21.629 C 199.242 21.710,199.434 21.834,199.668 21.906 C 199.903 21.978,200.692 22.313,201.422 22.651 C 202.152 22.989,202.941 23.326,203.175 23.399 C 203.410 23.473,203.602 23.596,203.602 23.673 C 203.602 23.750,203.964 23.969,204.408 24.160 C 204.851 24.351,205.341 24.608,205.498 24.730 C 205.654 24.852,206.166 25.115,206.635 25.315 C 207.104 25.514,207.531 25.728,207.583 25.792 C 207.635 25.855,207.934 26.039,208.246 26.200 C 209.528 26.862,211.096 27.754,211.185 27.871 C 211.237 27.940,211.642 28.154,212.085 28.347 C 212.528 28.540,212.891 28.757,212.891 28.828 C 212.891 28.900,213.318 29.142,213.839 29.366 C 214.360 29.590,214.787 29.848,214.787 29.939 C 214.787 30.030,215.026 30.189,215.320 30.291 C 215.613 30.393,215.975 30.597,216.125 30.744 C 216.275 30.891,216.782 31.207,217.251 31.447 C 218.974 32.328,219.698 32.752,220.001 33.055 C 220.172 33.225,220.403 33.365,220.515 33.365 C 220.627 33.365,221.154 33.652,221.687 34.003 C 222.219 34.355,222.846 34.702,223.081 34.774 C 223.315 34.847,223.507 34.967,223.507 35.041 C 223.507 35.114,223.827 35.343,224.218 35.549 C 224.609 35.755,225.047 36.035,225.191 36.172 C 225.335 36.309,225.783 36.553,226.186 36.715 C 226.590 36.876,226.919 37.078,226.919 37.164 C 226.919 37.250,227.090 37.375,227.299 37.441 C 227.828 37.609,227.771 37.830,227.131 38.095 C 226.603 38.314,223.507 38.329,223.507 38.113 C 223.507 37.990,221.515 38.028,221.291 38.155 C 220.989 38.326,214.755 38.314,214.536 38.142 C 214.413 38.045,211.028 37.914,207.014 37.849 C 193.683 37.635,182.089 37.323,181.798 37.170 C 181.640 37.087,180.659 37.004,179.618 36.986 C 178.577 36.967,174.739 36.829,171.090 36.678 C 167.441 36.527,163.090 36.347,161.422 36.277 C 159.754 36.208,158.346 36.095,158.294 36.025 C 158.242 35.956,155.213 35.742,151.564 35.550 C 147.915 35.359,144.886 35.143,144.834 35.070 C 144.782 34.998,143.630 34.882,142.275 34.814 C 137.254 34.559,131.078 34.091,130.711 33.937 C 130.502 33.850,128.540 33.637,126.351 33.464 C 124.161 33.290,122.199 33.077,121.991 32.989 C 121.782 32.902,119.657 32.644,117.269 32.417 C 114.880 32.190,112.790 31.932,112.624 31.845 C 112.458 31.757,110.829 31.547,109.005 31.377 C 107.180 31.208,105.517 30.995,105.308 30.904 C 105.100 30.814,103.521 30.597,101.801 30.423 C 100.081 30.249,98.502 30.038,98.294 29.953 C 98.085 29.869,97.168 29.692,96.256 29.561 C 95.344 29.430,94.597 29.270,94.597 29.205 C 94.597 28.975,95.652 28.482,96.635 28.252 C 97.182 28.124,97.630 27.955,97.630 27.878 C 97.630 27.800,98.291 27.544,99.100 27.310 C 99.908 27.076,100.654 26.817,100.758 26.735 C 100.863 26.653,101.460 26.445,102.085 26.272 C 102.711 26.099,103.393 25.879,103.602 25.784 C 103.810 25.688,104.621 25.427,105.403 25.202 C 106.185 24.978,106.910 24.732,107.014 24.656 C 107.118 24.580,107.801 24.362,108.531 24.172 C 109.261 23.981,109.900 23.767,109.953 23.695 C 110.005 23.624,110.687 23.411,111.469 23.223 C 112.251 23.035,112.934 22.824,112.986 22.755 C 113.038 22.687,113.891 22.431,114.882 22.188 C 115.872 21.945,116.725 21.688,116.777 21.618 C 116.829 21.548,117.555 21.334,118.389 21.142 C 119.223 20.950,119.948 20.733,120.000 20.659 C 120.052 20.584,120.905 20.335,121.896 20.103 C 122.886 19.872,123.782 19.617,123.886 19.537 C 123.991 19.457,124.844 19.235,125.782 19.045 C 126.720 18.854,127.531 18.642,127.583 18.574 C 127.635 18.505,128.701 18.253,129.953 18.013 C 131.204 17.773,132.313 17.513,132.417 17.435 C 132.521 17.358,133.502 17.147,134.597 16.967 C 135.692 16.787,136.673 16.571,136.777 16.489 C 136.882 16.406,138.033 16.189,139.336 16.006 C 140.640 15.824,141.749 15.615,141.801 15.543 C 141.901 15.404,148.680 14.590,149.700 14.595 C 150.030 14.596,150.329 14.518,150.363 14.422 C 150.529 13.960,164.552 13.745,170.711 14.109 M145.410 72.812 C 141.713 72.889,138.386 73.037,138.017 73.141 C 137.648 73.245,135.981 73.469,134.313 73.639 C 132.645 73.809,131.251 74.030,131.216 74.130 C 131.182 74.231,130.987 74.313,130.783 74.313 C 130.248 74.313,127.126 75.108,127.014 75.273 C 126.962 75.349,126.472 75.558,125.924 75.737 C 125.377 75.916,124.929 76.124,124.929 76.200 C 124.929 76.276,124.590 76.449,124.176 76.586 C 123.761 76.723,123.271 76.972,123.085 77.140 C 122.900 77.308,122.386 77.607,121.943 77.804 C 121.500 78.001,121.137 78.233,121.137 78.320 C 121.137 78.407,120.839 78.603,120.474 78.756 C 120.109 78.908,119.810 79.112,119.810 79.210 C 119.810 79.307,119.661 79.442,119.479 79.509 C 118.898 79.721,118.104 80.205,118.104 80.346 C 118.104 80.421,117.806 80.643,117.441 80.840 C 117.076 81.036,116.777 81.261,116.777 81.338 C 116.777 81.416,116.459 81.667,116.071 81.896 C 115.683 82.125,115.251 82.475,115.112 82.673 C 114.974 82.871,114.772 83.033,114.665 83.033 C 114.558 83.033,114.200 83.297,113.870 83.620 C 113.540 83.942,111.774 85.670,109.946 87.458 C 108.118 89.247,106.390 90.862,106.107 91.047 C 105.824 91.232,105.592 91.467,105.592 91.569 C 105.592 91.788,97.133 100.284,96.915 100.284 C 96.834 100.284,96.280 100.775,95.684 101.374 C 94.343 102.724,94.256 102.798,92.358 104.221 C 92.116 104.402,91.757 104.696,91.560 104.874 C 91.362 105.052,90.834 105.383,90.387 105.610 C 89.940 105.837,89.528 106.093,89.472 106.179 C 89.416 106.265,89.054 106.468,88.666 106.630 C 88.279 106.792,87.962 106.992,87.962 107.074 C 87.962 107.156,87.514 107.380,86.967 107.572 C 86.419 107.763,85.716 108.068,85.403 108.250 C 85.090 108.431,84.493 108.688,84.076 108.821 C 83.659 108.954,83.147 109.168,82.938 109.297 C 82.730 109.425,82.218 109.591,81.801 109.664 C 81.384 109.737,80.573 109.955,80.000 110.148 C 76.718 111.252,68.256 111.295,64.834 110.225 C 64.365 110.078,63.469 109.813,62.844 109.636 C 62.218 109.458,61.664 109.254,61.611 109.182 C 61.559 109.110,61.026 108.897,60.427 108.709 C 59.827 108.521,59.336 108.307,59.336 108.235 C 59.336 108.162,58.825 107.912,58.199 107.678 C 57.573 107.444,57.061 107.199,57.060 107.133 C 57.059 107.068,56.675 106.846,56.207 106.640 C 55.739 106.434,55.355 106.213,55.355 106.148 C 55.355 106.084,54.952 105.826,54.459 105.575 C 53.966 105.324,53.428 104.991,53.264 104.834 C 53.101 104.678,52.674 104.336,52.317 104.076 C 51.960 103.815,51.470 103.410,51.228 103.175 C 50.986 102.941,50.735 102.749,50.669 102.749 C 50.604 102.749,49.503 101.661,48.223 100.332 C 46.942 99.002,45.677 97.690,45.412 97.415 C 45.146 97.140,44.929 96.823,44.929 96.709 C 44.929 96.595,44.716 96.362,44.455 96.191 C 44.194 96.020,43.981 95.779,43.981 95.655 C 43.981 95.531,43.703 95.160,43.362 94.830 L 42.743 94.230 40.376 94.177 L 38.009 94.123 37.949 94.645 C 37.917 94.931,37.970 95.166,38.069 95.166 C 38.167 95.166,38.439 95.678,38.673 96.303 C 38.907 96.929,39.156 97.441,39.227 97.441 C 39.297 97.441,39.459 97.728,39.586 98.079 C 39.713 98.430,39.986 98.912,40.193 99.150 C 40.399 99.389,40.569 99.687,40.569 99.814 C 40.569 99.940,40.768 100.247,41.011 100.495 C 41.254 100.744,41.617 101.245,41.817 101.608 C 42.016 101.971,42.372 102.425,42.607 102.617 C 42.841 102.809,43.033 103.042,43.033 103.134 C 43.033 103.227,43.374 103.650,43.791 104.076 C 44.209 104.501,44.550 104.905,44.550 104.974 C 44.550 105.042,45.382 105.895,46.398 106.869 C 48.974 109.339,49.240 109.573,49.453 109.573 C 49.556 109.573,49.798 109.765,49.990 110.000 C 50.182 110.235,50.636 110.593,50.999 110.796 C 51.362 111.000,51.824 111.319,52.026 111.507 C 52.228 111.695,52.495 111.848,52.619 111.848 C 52.743 111.848,52.957 111.984,53.095 112.150 C 53.232 112.316,53.755 112.630,54.255 112.849 C 54.756 113.068,55.166 113.307,55.166 113.381 C 55.166 113.456,55.592 113.670,56.114 113.857 C 56.635 114.045,57.062 114.260,57.062 114.335 C 57.062 114.410,57.509 114.616,58.057 114.793 C 58.604 114.970,59.227 115.223,59.441 115.357 C 59.655 115.490,60.380 115.751,61.052 115.937 C 61.725 116.124,62.318 116.337,62.370 116.412 C 62.495 116.592,66.000 117.346,66.711 117.346 C 67.017 117.346,67.303 117.453,67.346 117.583 C 67.452 117.902,76.876 117.924,77.554 117.607 C 77.805 117.489,79.073 117.208,80.373 116.982 C 81.673 116.756,82.784 116.494,82.842 116.400 C 82.900 116.306,83.362 116.136,83.868 116.023 C 84.373 115.910,85.139 115.657,85.569 115.462 C 85.999 115.267,86.799 114.961,87.346 114.783 C 87.893 114.605,88.341 114.400,88.341 114.328 C 88.341 114.257,88.768 114.045,89.289 113.857 C 89.810 113.670,90.237 113.456,90.237 113.381 C 90.237 113.307,90.647 113.068,91.147 112.849 C 91.648 112.630,92.170 112.316,92.308 112.150 C 92.446 111.984,92.676 111.848,92.819 111.848 C 92.963 111.848,93.239 111.690,93.434 111.495 C 93.628 111.301,94.076 110.981,94.429 110.784 C 94.782 110.588,95.183 110.277,95.319 110.095 C 95.455 109.912,95.689 109.763,95.839 109.763 C 95.988 109.763,96.217 109.592,96.347 109.384 C 96.478 109.175,96.685 109.005,96.809 109.005 C 96.933 109.005,97.202 108.791,97.407 108.531 C 97.612 108.270,97.853 108.055,97.942 108.052 C 98.031 108.050,98.445 107.745,98.863 107.375 C 99.280 107.004,100.118 106.260,100.726 105.720 C 101.333 105.181,102.741 103.817,103.854 102.690 C 109.694 96.776,111.454 95.028,112.006 94.597 C 112.340 94.336,112.758 93.974,112.936 93.791 C 113.114 93.609,113.335 93.460,113.427 93.460 C 113.519 93.460,113.948 93.222,114.380 92.932 C 114.812 92.641,115.443 92.290,115.782 92.150 C 116.121 92.011,116.398 91.841,116.398 91.771 C 116.398 91.702,116.953 91.438,117.630 91.185 C 118.308 90.931,118.863 90.667,118.863 90.596 C 118.863 90.526,119.438 90.315,120.142 90.127 C 120.846 89.940,121.466 89.723,121.519 89.646 C 121.642 89.470,124.593 88.971,126.351 88.830 C 130.028 88.535,148.436 88.459,197.251 88.537 C 218.036 88.571,225.093 88.340,225.585 87.609 C 225.641 87.525,226.327 87.305,227.109 87.120 C 227.891 86.935,228.679 86.707,228.860 86.614 C 229.312 86.383,231.469 86.400,231.469 86.635 C 231.469 86.739,231.629 86.825,231.825 86.825 C 232.202 86.825,233.583 87.352,233.744 87.557 C 233.796 87.623,234.175 87.848,234.587 88.057 C 234.998 88.265,235.527 88.607,235.762 88.815 C 236.263 89.260,236.926 89.802,238.104 90.728 C 238.573 91.097,239.201 91.607,239.498 91.861 C 239.796 92.115,240.152 92.322,240.290 92.322 C 240.429 92.322,240.691 92.472,240.874 92.654 C 241.297 93.077,246.829 93.163,246.967 92.749 C 247.010 92.618,247.170 92.512,247.321 92.512 C 247.857 92.512,251.754 89.024,251.754 88.544 C 251.754 87.534,257.138 86.484,258.521 87.224 C 258.951 87.454,259.137 88.152,258.768 88.152 C 258.657 88.152,258.578 88.779,258.578 89.655 C 258.578 91.335,258.503 91.250,260.190 91.485 C 260.711 91.557,261.196 91.707,261.267 91.818 C 261.464 92.125,267.527 92.109,267.630 91.801 C 267.674 91.671,267.791 91.564,267.891 91.564 C 268.224 91.564,269.219 90.727,271.068 88.892 L 272.900 87.073 275.265 86.936 C 276.566 86.861,277.659 86.719,277.694 86.622 C 277.779 86.384,278.673 86.396,278.673 86.635 C 278.673 86.739,278.879 86.825,279.132 86.825 C 279.519 86.825,279.639 86.980,279.904 87.820 C 280.076 88.367,280.293 88.986,280.385 89.194 C 280.478 89.403,280.700 90.043,280.879 90.616 C 281.731 93.347,286.147 94.544,288.114 92.577 C 288.254 92.437,288.489 92.322,288.638 92.322 C 288.786 92.322,289.013 92.152,289.144 91.943 C 289.274 91.735,289.475 91.564,289.590 91.564 C 289.705 91.564,289.953 91.393,290.142 91.185 C 290.331 90.976,290.547 90.806,290.623 90.806 C 290.698 90.806,291.096 90.486,291.507 90.095 C 291.918 89.704,292.584 89.128,292.988 88.815 C 293.391 88.502,293.953 88.012,294.235 87.725 C 294.518 87.438,294.824 87.204,294.915 87.204 C 295.007 87.204,295.303 86.969,295.573 86.682 C 295.844 86.396,296.466 85.863,296.956 85.498 C 297.446 85.133,298.055 84.664,298.310 84.455 C 298.564 84.246,299.038 83.863,299.363 83.602 C 299.688 83.341,300.160 82.936,300.412 82.701 C 300.664 82.467,300.939 82.275,301.022 82.275 C 301.105 82.275,301.328 82.104,301.517 81.896 C 301.705 81.687,301.922 81.517,301.999 81.517 C 302.075 81.517,302.515 81.154,302.975 80.711 C 303.436 80.268,303.960 79.820,304.140 79.716 C 304.858 79.300,304.684 77.127,303.913 76.879 C 303.742 76.825,303.372 76.581,303.090 76.338 C 302.809 76.095,302.211 75.777,301.763 75.632 C 301.315 75.486,300.850 75.272,300.730 75.157 C 300.611 75.042,299.843 74.792,299.024 74.603 C 298.205 74.414,297.450 74.194,297.346 74.114 C 297.242 74.034,296.218 73.822,295.071 73.642 C 293.924 73.463,292.808 73.235,292.591 73.136 C 291.566 72.669,165.612 72.391,145.410 72.812 M22.133 141.928 C 21.533 141.973,21.043 142.090,21.043 142.190 C 21.043 142.289,20.826 142.370,20.561 142.370 C 19.920 142.370,17.183 142.939,17.062 143.098 C 17.010 143.167,16.348 143.428,15.592 143.679 C 14.836 143.930,14.218 144.200,14.218 144.280 C 14.218 144.360,13.913 144.526,13.541 144.649 C 13.169 144.772,12.822 144.983,12.770 145.119 C 12.718 145.255,12.532 145.418,12.357 145.482 C 11.739 145.708,11.192 146.101,10.798 146.602 C 10.578 146.881,10.323 147.109,10.231 147.109 C 9.967 147.109,8.262 148.938,7.643 149.886 C 7.454 150.175,7.107 150.620,6.872 150.874 C 6.637 151.127,6.445 151.420,6.445 151.523 C 6.445 151.627,6.333 151.806,6.195 151.922 C 6.058 152.038,5.783 152.517,5.585 152.986 C 5.386 153.455,5.173 153.882,5.112 153.934 C 5.050 153.986,4.844 154.540,4.654 155.166 C 4.464 155.791,4.232 156.401,4.138 156.520 C 3.883 156.845,3.223 160.448,3.223 161.512 C 3.223 162.024,3.137 162.495,3.033 162.559 C 2.783 162.714,2.783 166.954,3.033 167.109 C 3.137 167.173,3.223 167.590,3.223 168.035 C 3.223 169.248,3.786 172.314,4.167 173.175 C 4.351 173.592,4.610 174.275,4.743 174.692 C 4.875 175.109,5.045 175.493,5.119 175.545 C 5.193 175.597,5.438 176.024,5.663 176.493 C 6.281 177.781,6.946 178.809,7.282 178.997 C 7.447 179.090,7.583 179.268,7.584 179.393 C 7.585 179.598,10.245 182.278,11.386 183.223 C 11.943 183.684,13.318 184.520,14.218 184.943 C 14.583 185.115,14.924 185.318,14.976 185.394 C 15.103 185.580,17.425 186.351,17.857 186.351 C 18.045 186.351,18.199 186.426,18.199 186.519 C 18.199 186.799,21.915 187.171,24.739 187.174 C 27.313 187.177,30.711 186.827,30.711 186.559 C 30.711 186.486,31.235 186.318,31.875 186.186 C 33.014 185.951,35.213 185.027,35.691 184.583 C 35.823 184.461,36.228 184.195,36.591 183.994 C 37.932 183.250,41.706 179.836,41.706 179.367 C 41.706 179.258,41.863 179.057,42.055 178.921 C 42.246 178.784,42.609 178.303,42.860 177.851 L 43.318 177.030 42.875 176.727 C 42.631 176.561,42.021 176.006,41.520 175.493 C 40.547 174.501,40.065 174.394,39.715 175.097 C 39.605 175.317,39.128 175.873,38.657 176.332 C 38.185 176.790,37.742 177.313,37.673 177.493 C 37.604 177.673,37.433 177.820,37.293 177.820 C 37.153 177.820,36.849 178.076,36.618 178.389 C 36.386 178.701,36.076 178.957,35.928 178.957 C 35.780 178.957,35.590 179.074,35.507 179.216 C 35.424 179.358,35.078 179.616,34.739 179.790 C 34.400 179.963,34.123 180.174,34.123 180.259 C 34.123 180.344,33.761 180.527,33.318 180.667 C 32.874 180.807,32.213 181.065,31.848 181.240 C 29.558 182.343,22.042 182.353,21.232 181.256 C 21.180 181.185,20.754 180.959,20.286 180.753 C 19.443 180.383,19.157 180.186,18.337 179.413 C 18.105 179.194,17.723 178.914,17.488 178.790 C 17.254 178.666,17.062 178.442,17.062 178.292 C 17.062 178.141,16.848 177.878,16.588 177.708 C 16.327 177.537,16.114 177.295,16.114 177.170 C 16.114 177.046,15.940 176.757,15.728 176.530 C 15.516 176.302,15.170 175.712,14.958 175.218 C 14.746 174.724,14.512 174.276,14.438 174.222 C 14.267 174.098,13.649 172.113,13.649 171.689 C 13.649 171.516,13.579 171.374,13.492 171.374 C 13.277 171.374,12.944 169.453,12.688 166.730 C 12.498 164.723,12.513 163.747,12.792 160.000 C 12.889 158.707,13.324 156.398,13.472 156.398 C 13.555 156.398,13.729 155.919,13.860 155.334 C 13.991 154.749,14.190 154.173,14.301 154.054 C 14.412 153.936,14.710 153.391,14.962 152.844 C 15.214 152.296,15.491 151.848,15.577 151.848 C 15.664 151.848,15.735 151.755,15.735 151.641 C 15.735 151.195,18.079 148.626,18.487 148.626 C 18.619 148.626,18.775 148.500,18.834 148.347 C 18.893 148.194,19.222 147.935,19.565 147.772 C 19.909 147.608,20.445 147.335,20.758 147.164 C 21.071 146.993,21.706 146.782,22.170 146.695 C 22.633 146.609,23.080 146.432,23.162 146.302 C 23.281 146.114,23.312 146.115,23.315 146.303 C 23.316 146.434,23.488 146.540,23.697 146.540 C 23.905 146.540,24.076 146.455,24.076 146.351 C 24.076 146.244,24.613 146.161,25.308 146.161 C 26.003 146.161,26.540 146.244,26.540 146.351 C 26.540 146.455,26.711 146.540,26.919 146.540 C 27.128 146.540,27.300 146.434,27.301 146.303 C 27.303 146.157,27.357 146.139,27.444 146.256 C 27.520 146.360,28.176 146.597,28.902 146.782 C 29.627 146.968,30.281 147.216,30.354 147.335 C 30.427 147.453,30.704 147.643,30.968 147.756 C 32.632 148.469,35.239 152.076,35.622 154.194 C 35.714 154.703,35.905 155.193,36.046 155.284 C 36.259 155.422,36.255 155.485,36.019 155.654 C 35.805 155.808,35.793 155.882,35.972 155.954 C 36.102 156.007,36.209 156.231,36.209 156.452 C 36.209 156.764,36.259 156.803,36.436 156.626 C 36.582 156.480,37.329 156.398,38.521 156.398 L 40.379 156.398 40.379 149.384 L 40.379 142.370 38.114 142.370 L 35.848 142.370 35.791 143.460 C 35.735 144.536,35.130 144.974,34.688 144.259 C 34.624 144.156,34.109 143.907,33.542 143.707 C 32.975 143.506,32.256 143.217,31.943 143.064 C 31.630 142.911,30.735 142.677,29.953 142.543 C 29.171 142.410,28.485 142.234,28.429 142.153 C 28.308 141.976,23.690 141.811,22.133 141.928 M228.104 141.928 C 227.453 141.972,226.919 142.090,226.919 142.189 C 226.919 142.288,226.669 142.370,226.363 142.370 C 225.640 142.370,223.079 142.909,222.946 143.089 C 222.890 143.166,222.225 143.424,221.469 143.663 C 220.713 143.902,220.095 144.165,220.095 144.248 C 220.095 144.330,219.711 144.556,219.242 144.750 C 218.773 144.943,218.389 145.162,218.389 145.237 C 218.389 145.311,218.069 145.569,217.678 145.809 C 216.543 146.507,213.386 149.788,212.779 150.900 C 212.580 151.265,212.317 151.629,212.194 151.708 C 212.072 151.787,211.873 152.149,211.753 152.513 C 211.633 152.877,211.470 153.175,211.392 153.175 C 211.313 153.175,211.045 153.794,210.797 154.550 C 210.548 155.306,210.289 155.967,210.222 156.019 C 210.066 156.139,209.479 158.477,209.479 158.979 C 209.479 159.186,209.392 159.442,209.287 159.547 C 208.765 160.070,208.730 169.846,209.249 170.229 C 209.326 170.286,209.533 171.050,209.710 171.927 C 209.888 172.805,210.104 173.573,210.191 173.634 C 210.279 173.694,210.495 174.199,210.671 174.754 C 210.847 175.310,211.160 176.003,211.368 176.294 C 211.575 176.585,211.829 177.047,211.934 177.321 C 212.038 177.595,212.211 177.820,212.318 177.820 C 212.424 177.820,212.512 177.928,212.512 178.060 C 212.512 178.843,217.712 184.076,218.490 184.076 C 218.577 184.076,218.825 184.233,219.040 184.424 C 219.255 184.616,219.730 184.888,220.095 185.030 C 220.460 185.171,220.801 185.346,220.853 185.418 C 220.981 185.595,223.454 186.351,223.906 186.351 C 224.104 186.351,224.265 186.419,224.265 186.503 C 224.265 187.261,235.546 187.301,236.493 186.546 C 236.597 186.463,236.981 186.334,237.346 186.259 C 238.493 186.025,239.810 185.556,239.810 185.381 C 239.810 185.289,239.931 185.213,240.079 185.213 C 240.331 185.213,241.341 184.734,241.790 184.401 C 241.973 184.265,243.437 183.301,244.156 182.843 C 244.606 182.557,247.643 179.487,247.907 179.052 C 248.033 178.844,248.198 178.552,248.272 178.403 C 248.346 178.255,248.563 177.977,248.753 177.787 C 249.259 177.281,249.188 177.039,248.320 176.302 C 247.891 175.938,247.317 175.405,247.045 175.118 C 246.773 174.832,246.474 174.597,246.381 174.597 C 246.183 174.597,244.739 176.007,244.739 176.200 C 244.739 176.368,242.478 178.578,242.306 178.578 C 242.235 178.578,241.941 178.797,241.653 179.063 C 241.365 179.330,240.814 179.680,240.429 179.841 C 240.044 180.002,239.641 180.239,239.533 180.367 C 239.425 180.494,238.953 180.716,238.483 180.858 C 238.014 181.001,237.460 181.221,237.251 181.347 C 236.141 182.019,230.071 182.315,228.246 181.787 C 227.350 181.528,225.353 180.501,225.245 180.245 C 225.210 180.162,225.082 180.094,224.961 180.093 C 224.663 180.092,222.335 177.669,222.002 177.014 C 221.856 176.727,221.665 176.493,221.578 176.493 C 221.490 176.493,221.282 176.152,221.115 175.735 C 220.948 175.318,220.744 174.976,220.661 174.976 C 220.577 174.976,220.361 174.486,220.180 173.886 C 219.999 173.287,219.745 172.622,219.615 172.409 C 219.365 171.999,219.010 170.471,218.844 169.089 C 218.788 168.629,218.657 168.200,218.552 168.135 C 218.283 167.969,218.297 160.504,218.566 160.415 C 218.677 160.378,218.768 160.120,218.768 159.842 C 218.767 159.187,219.364 156.142,219.517 156.019 C 219.581 155.967,219.837 155.306,220.086 154.550 C 220.335 153.794,220.603 153.175,220.683 153.175 C 220.762 153.175,220.887 152.983,220.959 152.749 C 221.031 152.514,221.378 151.927,221.730 151.444 C 222.082 150.961,222.370 150.506,222.370 150.434 C 222.370 150.318,223.018 149.673,224.389 148.425 C 224.613 148.220,225.096 147.928,225.461 147.775 C 225.827 147.623,226.156 147.415,226.191 147.314 C 226.227 147.213,226.682 147.032,227.204 146.912 C 227.725 146.792,228.400 146.570,228.704 146.418 C 229.153 146.195,229.288 146.189,229.429 146.389 C 229.566 146.583,229.623 146.585,229.698 146.398 C 229.811 146.120,233.088 146.056,233.257 146.329 C 233.314 146.421,233.756 146.556,234.240 146.629 C 235.103 146.758,236.020 147.078,236.209 147.316 C 236.261 147.381,236.602 147.584,236.967 147.766 C 237.704 148.134,239.738 150.184,239.913 150.736 C 239.975 150.931,240.105 151.090,240.202 151.090 C 240.300 151.090,240.379 151.169,240.379 151.266 C 240.379 151.363,240.642 152.010,240.963 152.704 C 241.284 153.398,241.654 154.492,241.785 155.135 L 242.023 156.303 244.045 156.357 L 246.066 156.411 246.075 155.030 C 246.079 154.271,246.100 151.111,246.122 148.010 L 246.161 142.370 243.934 142.370 L 241.706 142.370 241.706 142.915 C 241.706 144.394,241.325 144.971,240.721 144.408 C 240.331 144.044,239.399 143.574,238.770 143.423 C 238.458 143.348,238.153 143.207,238.092 143.108 C 238.031 143.010,237.220 142.785,236.289 142.609 C 235.359 142.433,234.551 142.225,234.495 142.147 C 234.372 141.974,229.755 141.816,228.104 141.928 M62.150 142.796 C 62.020 143.239,61.862 143.645,61.798 143.697 C 61.735 143.749,61.527 144.303,61.336 144.929 C 61.146 145.555,60.928 146.152,60.852 146.256 C 60.776 146.360,60.519 147.043,60.281 147.773 C 60.044 148.502,59.787 149.142,59.711 149.194 C 59.635 149.246,59.416 149.822,59.223 150.474 C 59.031 151.126,58.813 151.659,58.739 151.659 C 58.665 151.659,58.465 152.149,58.294 152.749 C 58.123 153.348,57.827 154.180,57.636 154.597 C 57.446 155.014,57.187 155.803,57.062 156.351 C 56.937 156.898,56.767 157.346,56.685 157.346 C 56.602 157.346,56.381 157.922,56.194 158.626 C 56.006 159.329,55.782 159.954,55.696 160.013 C 55.610 160.072,55.365 160.753,55.151 161.526 C 54.936 162.299,54.689 162.976,54.602 163.030 C 54.514 163.085,54.299 163.683,54.124 164.361 C 53.948 165.038,53.739 165.678,53.658 165.782 C 53.477 166.016,52.701 168.501,52.701 168.847 C 52.701 168.986,52.625 169.100,52.532 169.100 C 52.439 169.100,52.217 169.697,52.038 170.427 C 51.859 171.156,51.648 171.754,51.570 171.754 C 51.491 171.754,51.233 172.436,50.995 173.270 C 50.758 174.104,50.509 174.787,50.442 174.787 C 50.375 174.787,50.203 175.192,50.061 175.687 C 49.918 176.182,49.601 176.936,49.356 177.363 C 49.111 177.789,48.910 178.243,48.910 178.371 C 48.910 178.500,48.654 178.977,48.341 179.431 C 48.028 179.886,47.773 180.318,47.773 180.392 C 47.773 180.866,46.112 181.908,44.982 182.143 L 44.265 182.291 44.212 184.321 L 44.158 186.351 51.084 186.351 L 58.009 186.351 58.009 184.096 C 58.009 182.455,57.945 181.823,57.773 181.773 C 57.642 181.736,56.576 181.706,55.403 181.706 C 53.174 181.706,52.807 181.533,53.521 180.819 C 53.659 180.681,53.931 180.142,54.127 179.621 C 54.323 179.099,54.535 178.630,54.599 178.578 C 54.715 178.484,55.232 176.868,55.464 175.877 C 55.531 175.590,55.662 175.355,55.755 175.355 C 55.848 175.355,55.924 175.229,55.924 175.075 C 55.924 174.921,56.060 174.455,56.226 174.041 L 56.527 173.288 61.486 173.198 C 64.214 173.149,66.822 173.068,67.282 173.018 C 67.743 172.968,68.316 173.017,68.556 173.127 C 68.880 173.274,69.070 173.262,69.290 173.080 C 70.043 172.455,71.148 174.126,71.771 176.830 C 71.932 177.531,72.144 178.185,72.241 178.284 C 73.216 179.280,72.052 181.842,70.475 182.171 L 69.479 182.378 69.469 184.365 L 69.460 186.351 77.953 186.351 L 86.445 186.351 86.445 184.171 C 86.445 182.043,86.435 181.990,86.019 181.967 C 85.784 181.954,85.045 181.923,84.376 181.899 L 83.160 181.854 82.870 180.927 C 82.711 180.417,82.527 179.957,82.461 179.905 C 82.396 179.853,82.190 179.256,82.004 178.578 C 81.818 177.900,81.600 177.261,81.521 177.156 C 81.442 177.052,81.182 176.327,80.944 175.545 C 80.706 174.763,80.410 173.953,80.285 173.744 C 80.161 173.536,79.943 172.981,79.801 172.512 C 79.658 172.043,79.483 171.616,79.412 171.564 C 79.340 171.512,79.068 170.872,78.807 170.142 C 77.670 166.964,77.434 166.345,77.327 166.256 C 77.265 166.204,77.038 165.649,76.823 165.024 C 76.144 163.047,75.381 161.046,75.270 160.948 C 75.211 160.896,74.999 160.384,74.799 159.810 C 74.598 159.237,74.279 158.512,74.090 158.199 C 73.900 157.886,73.745 157.511,73.745 157.364 C 73.744 157.218,73.499 156.578,73.200 155.943 C 72.900 155.307,72.595 154.509,72.521 154.171 C 72.447 153.832,72.325 153.555,72.249 153.555 C 72.173 153.555,71.918 152.915,71.683 152.133 C 71.449 151.351,71.195 150.711,71.120 150.711 C 71.045 150.711,70.868 150.306,70.727 149.810 C 70.586 149.315,70.324 148.654,70.145 148.341 C 69.967 148.028,69.672 147.282,69.490 146.682 C 69.308 146.083,69.100 145.592,69.028 145.592 C 68.957 145.592,68.782 145.187,68.640 144.692 C 68.498 144.197,68.202 143.388,67.982 142.895 L 67.583 141.998 64.984 141.994 L 62.385 141.991 62.150 142.796 M137.739 142.706 C 135.521 142.740,134.249 142.834,134.077 142.977 C 133.795 143.211,133.794 146.159,134.076 146.161 C 134.154 146.161,134.218 146.368,134.218 146.621 C 134.218 147.059,134.285 147.084,135.687 147.174 C 136.495 147.225,137.486 147.328,137.890 147.401 L 138.623 147.535 138.495 148.412 C 138.424 148.894,138.367 155.877,138.367 163.929 C 138.368 172.943,138.300 178.611,138.189 178.679 C 138.090 178.740,138.009 179.001,138.009 179.259 C 138.009 180.500,136.891 181.902,135.737 182.110 C 135.371 182.176,134.951 182.325,134.803 182.442 C 134.603 182.601,134.515 182.594,134.456 182.417 C 134.127 181.442,133.839 182.306,133.839 184.265 L 133.839 186.351 143.318 186.351 L 152.796 186.351 152.796 184.076 L 152.796 181.801 151.896 181.762 C 151.400 181.741,150.100 181.719,149.005 181.715 C 147.123 181.707,147.018 181.685,147.075 181.327 C 147.108 181.118,147.169 177.919,147.211 174.218 C 147.252 170.517,147.289 167.416,147.292 167.327 C 147.309 166.884,152.607 167.532,152.607 167.977 C 152.607 168.048,152.861 168.211,153.172 168.340 C 153.728 168.570,154.312 169.434,154.314 170.029 C 154.315 170.196,154.443 170.576,154.598 170.875 C 154.754 171.173,154.882 171.621,154.882 171.870 C 154.882 172.209,154.989 172.326,155.308 172.336 C 156.315 172.369,158.580 172.288,158.652 172.217 C 158.785 172.084,158.902 159.417,158.776 158.744 L 158.656 158.104 156.484 158.104 L 154.313 158.104 154.310 160.047 C 154.307 162.173,154.249 162.355,153.447 162.771 C 152.722 163.147,147.934 163.094,147.465 162.705 C 147.130 162.427,147.095 149.458,147.429 149.213 C 147.514 149.150,147.746 148.780,147.945 148.389 C 148.143 147.998,148.416 147.678,148.551 147.678 C 148.686 147.678,148.868 147.550,148.955 147.394 C 149.349 146.690,156.888 146.605,157.125 147.302 C 157.160 147.404,157.309 147.488,157.457 147.488 C 158.205 147.488,160.210 149.122,160.471 149.943 C 160.539 150.157,160.660 150.332,160.741 150.332 C 161.025 150.332,161.694 152.977,161.702 154.130 L 161.706 154.800 163.649 154.725 C 164.718 154.683,165.614 154.630,165.641 154.607 C 165.667 154.583,165.632 151.905,165.563 148.656 L 165.436 142.749 156.510 142.734 C 151.600 142.725,146.133 142.704,144.360 142.686 C 142.588 142.669,139.608 142.677,137.739 142.706 M170.175 142.715 C 169.901 142.768,169.858 143.070,169.858 144.943 L 169.858 147.109 172.129 147.109 C 174.633 147.109,174.844 147.235,174.518 148.538 C 174.451 148.802,174.399 155.622,174.402 163.693 C 174.404 171.764,174.333 178.413,174.242 178.468 C 174.152 178.524,174.022 178.999,173.952 179.523 C 173.730 181.195,172.485 182.176,170.581 182.179 L 169.883 182.180 169.821 184.123 C 169.787 185.192,169.787 186.130,169.820 186.209 C 169.853 186.287,177.410 186.351,186.613 186.351 L 203.346 186.351 203.336 185.735 C 203.330 185.396,203.395 182.335,203.480 178.934 L 203.634 172.749 201.827 172.613 C 199.673 172.452,199.622 172.475,199.616 173.613 C 199.600 176.675,197.567 179.948,195.071 180.930 C 194.602 181.115,194.119 181.348,193.998 181.448 C 193.601 181.776,186.402 182.121,184.413 181.908 L 183.164 181.775 183.142 173.740 C 183.121 165.792,183.125 165.702,183.514 165.494 C 183.967 165.252,188.218 165.538,188.415 165.824 C 188.479 165.917,188.829 166.112,189.194 166.257 C 190.557 166.798,191.469 168.361,191.469 170.152 C 191.469 170.615,191.475 170.616,193.438 170.616 L 195.406 170.616 195.494 169.336 C 195.564 168.312,195.546 159.513,195.468 157.299 C 195.452 156.839,195.376 156.777,194.825 156.777 C 194.481 156.777,194.097 156.675,193.972 156.550 C 193.795 156.373,193.694 156.373,193.517 156.550 C 193.243 156.824,191.469 156.857,191.469 156.588 C 191.469 156.483,191.384 156.398,191.280 156.398 C 191.165 156.398,191.090 157.177,191.090 158.356 C 191.090 161.238,191.116 161.220,186.831 161.227 C 185.020 161.230,183.468 161.161,183.381 161.074 C 183.055 160.749,183.206 149.194,183.536 149.194 C 183.610 149.194,183.728 149.002,183.798 148.768 C 183.999 148.089,185.103 147.182,186.000 146.958 C 187.494 146.585,192.252 146.814,193.150 147.301 C 193.320 147.394,193.801 147.621,194.218 147.806 C 195.102 148.198,195.985 149.029,196.505 149.955 C 196.707 150.315,196.963 150.708,197.074 150.828 C 197.185 150.949,197.384 151.547,197.516 152.159 C 197.990 154.354,197.943 154.313,199.947 154.313 L 201.698 154.313 201.581 148.578 C 201.517 145.424,201.453 142.827,201.439 142.807 C 201.392 142.743,170.502 142.652,170.175 142.715 M90.424 144.583 C 90.423 145.607,90.375 146.616,90.319 146.825 C 90.221 147.190,90.294 147.201,92.303 147.140 C 94.397 147.076,95.471 147.409,95.101 148.009 C 95.042 148.103,94.976 149.283,94.953 150.630 C 94.929 151.978,94.866 153.163,94.812 153.265 C 94.633 153.596,94.628 154.878,94.804 154.987 C 95.037 155.131,95.025 158.052,94.791 158.197 C 94.673 158.269,94.686 158.441,94.827 158.666 C 94.999 158.942,94.993 159.088,94.800 159.321 C 94.633 159.521,94.621 159.621,94.764 159.621 C 95.035 159.621,95.049 161.368,94.780 161.637 C 94.646 161.771,94.644 161.995,94.775 162.339 C 94.888 162.635,94.895 162.844,94.792 162.844 C 94.689 162.844,94.695 163.069,94.808 163.392 C 95.011 163.973,94.960 165.254,94.719 165.644 C 94.639 165.772,94.657 165.877,94.758 165.877 C 95.019 165.877,95.055 175.853,94.794 176.014 C 94.686 176.081,94.596 176.792,94.594 177.594 C 94.591 179.058,94.268 180.580,93.909 180.819 C 93.803 180.890,93.666 181.084,93.605 181.250 C 93.466 181.631,92.327 182.180,91.678 182.180 C 91.407 182.180,91.185 182.259,91.185 182.356 C 91.185 182.453,90.993 182.560,90.758 182.593 C 90.354 182.651,90.329 182.749,90.277 184.502 L 90.223 186.351 99.377 186.351 L 108.531 186.351 108.466 184.123 C 108.389 181.435,108.669 181.702,105.954 181.728 C 103.747 181.748,103.570 181.702,103.693 181.137 C 103.716 181.033,103.722 178.709,103.706 175.972 C 103.691 173.235,103.736 170.484,103.806 169.858 L 103.935 168.720 105.333 168.720 C 106.138 168.720,106.730 168.801,106.730 168.910 C 106.730 169.014,106.879 169.102,107.062 169.106 C 107.538 169.114,108.294 169.840,108.685 170.664 C 108.871 171.055,109.094 171.374,109.182 171.374 C 109.269 171.374,109.492 171.694,109.676 172.085 C 109.860 172.476,110.201 173.052,110.434 173.365 C 110.666 173.678,110.915 174.126,110.986 174.360 C 111.057 174.595,111.188 174.787,111.275 174.787 C 111.363 174.787,111.629 175.192,111.866 175.687 C 112.102 176.182,112.356 176.630,112.430 176.682 C 112.504 176.735,112.707 177.076,112.882 177.441 C 113.057 177.806,113.488 178.616,113.839 179.242 C 114.191 179.867,114.672 180.742,114.908 181.185 C 115.143 181.628,115.405 181.991,115.488 181.991 C 115.572 181.991,115.640 182.089,115.640 182.210 C 115.640 182.331,115.981 182.882,116.398 183.434 C 116.815 183.987,117.156 184.498,117.156 184.570 C 117.156 184.642,117.549 185.073,118.029 185.526 L 118.902 186.351 124.197 186.351 L 129.492 186.351 129.438 184.412 C 129.377 182.233,129.567 182.479,127.566 181.984 C 126.662 181.760,125.118 180.618,125.118 180.173 C 125.118 180.033,124.948 179.827,124.739 179.716 C 124.531 179.604,124.360 179.409,124.360 179.282 C 124.360 179.156,124.147 178.805,123.887 178.503 C 123.628 178.201,123.270 177.625,123.093 177.223 C 122.916 176.822,122.703 176.493,122.620 176.493 C 122.537 176.493,122.346 176.196,122.194 175.834 C 122.043 175.471,121.743 174.986,121.528 174.755 C 121.313 174.525,121.137 174.224,121.137 174.087 C 121.137 173.951,120.988 173.684,120.806 173.495 C 120.623 173.305,120.313 172.867,120.116 172.521 C 119.919 172.174,119.621 171.729,119.452 171.531 C 118.770 170.729,116.757 168.720,116.629 168.714 C 115.596 168.666,115.450 167.458,116.445 167.194 C 116.889 167.076,117.507 166.870,117.820 166.735 C 118.133 166.600,118.687 166.377,119.052 166.239 C 119.417 166.101,119.828 165.877,119.966 165.743 C 120.104 165.608,120.330 165.498,120.468 165.498 C 120.606 165.498,120.919 165.286,121.165 165.027 C 121.410 164.768,121.707 164.555,121.824 164.553 C 122.158 164.548,124.188 162.280,124.398 161.678 C 124.502 161.381,124.652 161.137,124.732 161.137 C 124.812 161.137,125.028 160.647,125.213 160.047 C 125.398 159.448,125.612 158.872,125.689 158.768 C 126.272 157.970,126.303 151.775,125.726 151.027 C 125.633 150.905,125.445 150.393,125.308 149.888 C 125.171 149.383,124.945 148.926,124.805 148.872 C 124.664 148.819,124.550 148.662,124.550 148.524 C 124.550 148.387,124.336 148.106,124.076 147.901 C 123.815 147.696,123.602 147.436,123.602 147.323 C 123.602 147.210,123.367 146.967,123.081 146.783 C 122.794 146.598,122.404 146.255,122.214 146.020 C 122.024 145.785,121.753 145.592,121.611 145.592 C 121.470 145.592,121.237 145.476,121.094 145.333 C 120.743 144.981,119.704 144.455,119.362 144.455 C 119.209 144.455,119.055 144.374,119.021 144.274 C 118.937 144.035,116.967 143.527,115.545 143.378 C 114.919 143.313,114.347 143.166,114.272 143.052 C 114.177 142.905,110.616 142.825,102.282 142.782 L 90.427 142.721 90.424 144.583 M251.602 142.976 C 251.327 143.251,251.298 144.575,251.564 144.739 C 251.795 144.882,251.821 148.757,251.592 148.847 C 251.504 148.882,251.374 150.680,251.303 152.844 L 251.176 156.777 253.246 156.777 L 255.316 156.777 255.450 155.261 C 255.524 154.427,255.661 153.744,255.754 153.744 C 255.848 153.744,255.924 153.546,255.924 153.305 C 255.924 152.681,256.476 150.900,256.669 150.900 C 256.758 150.900,256.879 150.709,256.939 150.474 C 257.143 149.663,259.302 147.678,259.980 147.678 C 260.132 147.678,260.389 147.546,260.549 147.386 C 260.971 146.964,265.076 146.570,265.488 146.912 C 265.898 147.252,265.930 177.828,265.523 179.560 C 265.211 180.886,264.310 181.931,263.324 182.112 C 262.956 182.179,262.593 182.329,262.518 182.444 C 262.419 182.595,262.274 182.588,261.999 182.417 C 261.789 182.287,261.573 182.180,261.519 182.180 C 261.466 182.180,261.422 183.118,261.422 184.265 L 261.422 186.351 270.616 186.351 L 279.810 186.351 279.810 184.081 L 279.810 181.812 277.393 181.759 L 274.976 181.706 274.946 167.299 C 274.930 159.374,274.964 151.549,275.021 149.909 L 275.125 146.926 275.780 146.804 C 276.531 146.663,279.922 147.006,280.253 147.256 C 280.375 147.348,280.870 147.569,281.353 147.747 C 282.394 148.132,283.478 149.129,284.034 150.214 C 284.254 150.644,284.494 151.038,284.566 151.090 C 284.755 151.225,285.308 153.161,285.308 153.684 C 285.308 153.925,285.383 154.123,285.475 154.123 C 285.567 154.123,285.647 154.471,285.653 154.897 C 285.680 156.811,286.115 157.053,289.100 156.815 L 289.953 156.747 289.888 153.682 C 289.852 151.996,289.749 150.571,289.659 150.516 C 289.569 150.460,289.470 148.690,289.439 146.582 L 289.384 142.751 270.607 142.750 C 256.254 142.749,251.776 142.802,251.602 142.976 M294.218 144.929 L 294.218 147.109 296.209 147.109 C 297.409 147.109,298.199 147.184,298.199 147.299 C 298.199 147.403,298.313 147.488,298.452 147.488 C 298.654 147.488,298.692 147.979,298.636 149.905 C 298.597 151.235,298.547 158.379,298.524 165.782 L 298.483 179.242 297.915 180.348 C 297.269 181.604,296.348 182.180,294.987 182.180 L 294.218 182.180 294.218 184.265 L 294.218 186.351 303.128 186.351 L 312.038 186.351 312.038 184.076 L 312.038 181.801 310.379 181.763 C 309.467 181.742,308.464 181.724,308.152 181.723 C 307.556 181.721,306.933 181.323,307.323 181.193 C 307.474 181.142,307.542 176.702,307.563 165.301 C 307.595 148.339,307.567 148.853,308.531 148.010 C 309.411 147.240,310.208 146.868,311.058 146.833 L 311.943 146.796 311.997 144.772 L 312.051 142.749 303.134 142.749 L 294.218 142.749 294.218 144.929 M316.019 144.049 C 316.019 144.765,315.965 145.746,315.898 146.229 L 315.778 147.109 317.488 147.109 L 319.199 147.109 319.484 147.725 C 319.641 148.064,319.912 148.979,320.087 149.759 C 320.261 150.539,320.465 151.222,320.540 151.276 C 320.615 151.330,320.880 152.036,321.130 152.844 C 321.379 153.652,321.638 154.313,321.705 154.313 C 321.772 154.313,321.974 154.782,322.155 155.355 C 322.336 155.929,322.544 156.398,322.618 156.398 C 322.691 156.398,322.857 156.736,322.985 157.148 C 323.114 157.560,323.476 158.458,323.790 159.143 C 324.103 159.828,324.360 160.508,324.360 160.655 C 324.360 160.801,324.475 161.035,324.615 161.176 C 324.755 161.316,325.018 161.876,325.199 162.421 C 325.380 162.966,325.587 163.412,325.659 163.412 C 325.732 163.412,325.999 164.031,326.254 164.787 C 326.509 165.543,326.827 166.274,326.961 166.412 C 327.095 166.549,327.204 166.782,327.204 166.928 C 327.204 167.075,327.448 167.730,327.747 168.384 C 328.045 169.038,328.356 169.787,328.437 170.047 C 328.518 170.308,328.735 170.804,328.919 171.150 C 329.104 171.495,329.366 172.157,329.503 172.619 C 329.639 173.081,329.811 173.460,329.884 173.460 C 329.957 173.460,330.201 174.014,330.427 174.692 C 330.652 175.370,330.894 175.924,330.965 175.924 C 331.035 175.924,331.203 176.287,331.339 176.730 C 331.475 177.173,331.783 177.919,332.024 178.389 C 332.266 178.858,332.524 179.519,332.597 179.858 C 332.671 180.197,332.797 180.474,332.876 180.474 C 332.956 180.474,333.126 180.836,333.256 181.280 C 333.385 181.723,333.707 182.549,333.971 183.115 C 334.235 183.681,334.554 184.406,334.679 184.726 C 335.641 187.179,335.675 187.197,338.903 187.037 C 340.827 186.941,341.043 186.873,341.043 186.355 C 341.043 186.162,341.107 185.975,341.185 185.940 C 341.319 185.880,341.593 185.181,342.695 182.085 C 342.955 181.355,343.227 180.716,343.299 180.664 C 343.457 180.550,344.076 178.645,344.076 178.272 C 344.076 178.128,344.153 178.009,344.248 178.009 C 344.418 178.009,345.213 175.718,345.213 175.229 C 345.213 175.090,345.293 174.976,345.389 174.976 C 345.486 174.976,345.708 174.486,345.882 173.886 C 346.056 173.287,346.257 172.754,346.328 172.701 C 346.400 172.649,346.662 171.945,346.912 171.137 C 347.161 170.329,347.426 169.668,347.500 169.668 C 347.575 169.668,347.786 169.114,347.969 168.436 C 348.153 167.758,348.364 167.204,348.438 167.204 C 348.512 167.204,348.767 166.521,349.005 165.687 C 349.242 164.853,349.497 164.171,349.570 164.171 C 349.643 164.171,349.862 163.637,350.056 162.986 C 350.250 162.334,350.462 161.758,350.527 161.706 C 350.592 161.654,350.793 161.142,350.973 160.569 C 351.154 159.995,351.453 159.185,351.639 158.768 C 351.825 158.351,352.088 157.604,352.222 157.109 C 352.356 156.614,352.522 156.209,352.590 156.209 C 352.658 156.209,352.828 155.803,352.968 155.308 C 353.108 154.813,353.328 154.237,353.455 154.028 C 353.583 153.820,353.883 153.098,354.122 152.424 C 354.360 151.751,354.672 151.083,354.813 150.942 C 354.955 150.800,355.071 150.598,355.071 150.493 C 355.071 149.978,356.653 148.142,357.388 147.806 C 357.821 147.607,358.294 147.326,358.439 147.180 C 358.585 147.035,358.769 146.956,358.848 147.005 C 358.928 147.055,359.310 147.007,359.698 146.900 L 360.402 146.706 360.350 144.727 L 360.298 142.749 352.945 142.749 L 345.592 142.749 345.592 145.118 C 345.592 146.572,345.666 147.488,345.782 147.488 C 345.886 147.488,345.972 147.403,345.972 147.299 C 345.972 147.183,346.861 147.109,348.260 147.109 C 351.102 147.109,351.417 147.284,350.552 148.386 C 350.245 148.778,349.881 149.419,349.745 149.810 C 349.609 150.201,349.443 150.521,349.376 150.521 C 349.309 150.521,349.099 151.033,348.910 151.659 C 348.721 152.284,348.504 152.796,348.429 152.796 C 348.353 152.796,348.190 153.198,348.067 153.690 C 347.943 154.181,347.646 155.013,347.408 155.538 C 347.169 156.063,346.868 156.941,346.738 157.488 C 346.609 158.036,346.446 158.483,346.377 158.483 C 346.308 158.483,346.088 159.059,345.889 159.763 C 345.690 160.467,345.475 161.085,345.411 161.137 C 345.348 161.190,345.088 161.915,344.834 162.749 C 344.580 163.583,344.317 164.308,344.250 164.360 C 344.182 164.412,343.969 165.073,343.775 165.829 C 343.581 166.585,343.369 167.204,343.302 167.204 C 343.235 167.204,342.982 167.908,342.740 168.768 C 342.498 169.628,342.244 170.374,342.176 170.427 C 342.108 170.479,341.894 171.055,341.701 171.706 C 341.508 172.358,341.288 172.891,341.211 172.891 C 341.135 172.891,341.016 173.168,340.947 173.507 C 340.502 175.694,340.067 175.862,339.594 174.028 C 339.406 173.299,339.196 172.701,339.126 172.701 C 339.056 172.701,338.849 172.147,338.666 171.469 C 338.482 170.791,338.272 170.237,338.199 170.237 C 338.125 170.237,337.875 169.597,337.643 168.815 C 337.410 168.033,337.158 167.393,337.082 167.393 C 337.006 167.393,336.833 166.945,336.697 166.398 C 336.562 165.851,336.344 165.232,336.213 165.022 C 336.083 164.813,335.777 164.024,335.533 163.269 C 335.290 162.514,335.023 161.896,334.939 161.896 C 334.855 161.896,334.787 161.771,334.787 161.618 C 334.787 161.236,334.206 159.548,334.034 159.431 C 333.957 159.379,333.742 158.867,333.555 158.294 C 333.367 157.720,333.142 157.204,333.054 157.146 C 332.966 157.088,332.706 156.406,332.476 155.630 C 332.246 154.853,331.984 154.167,331.895 154.106 C 331.806 154.044,331.602 153.489,331.441 152.874 C 331.280 152.258,331.054 151.695,330.939 151.624 C 330.170 151.148,330.964 147.488,331.836 147.488 C 331.910 147.488,332.096 147.363,332.249 147.209 C 332.403 147.056,332.951 146.874,333.468 146.806 L 334.408 146.681 334.443 145.615 C 334.463 145.029,334.496 144.145,334.518 143.649 L 334.556 142.749 325.288 142.749 L 316.019 142.749 316.019 144.049 M363.602 144.929 L 363.602 147.109 365.460 147.109 C 367.757 147.109,368.408 147.345,368.257 148.125 C 368.200 148.423,368.151 155.397,368.149 163.623 C 368.147 173.307,368.080 178.578,367.959 178.578 C 367.856 178.578,367.773 178.781,367.773 179.029 C 367.773 180.755,366.176 182.180,364.242 182.180 L 363.602 182.180 363.602 184.265 L 363.602 186.351 380.349 186.351 L 397.096 186.351 397.221 182.624 C 397.290 180.574,397.346 177.515,397.346 175.826 L 397.346 172.756 396.066 172.635 C 393.550 172.398,393.621 172.374,393.476 173.507 C 393.280 175.046,392.923 176.682,392.784 176.682 C 392.715 176.682,392.513 177.063,392.335 177.527 C 391.473 179.786,388.690 181.467,385.263 181.801 C 383.268 181.995,377.966 182.050,377.346 181.883 C 376.892 181.762,376.865 165.944,377.318 165.632 C 377.847 165.268,381.861 165.607,382.774 166.093 C 384.504 167.014,385.213 168.084,385.213 169.772 L 385.213 170.806 387.299 170.806 L 389.384 170.806 389.384 163.791 L 389.384 156.777 387.204 156.777 L 385.024 156.777 385.024 158.266 C 385.024 160.058,384.777 160.874,384.189 161.021 C 383.187 161.272,380.962 161.367,379.071 161.238 L 377.042 161.100 377.073 155.413 C 377.097 150.987,377.162 149.614,377.366 149.223 C 377.510 148.947,377.629 148.629,377.629 148.518 C 377.640 146.709,384.497 146.066,387.636 147.580 C 388.179 147.842,388.675 148.057,388.738 148.057 C 388.965 148.057,389.870 149.153,390.239 149.874 C 390.447 150.279,390.710 150.711,390.824 150.834 C 390.938 150.958,391.142 151.599,391.277 152.259 C 391.412 152.919,391.596 153.541,391.686 153.640 C 391.775 153.739,391.848 154.016,391.848 154.256 C 391.848 154.496,391.934 154.692,392.038 154.692 C 392.142 154.692,392.227 154.607,392.227 154.502 C 392.227 154.391,392.887 154.313,393.826 154.313 L 395.425 154.313 395.390 148.532 L 395.355 142.751 379.479 142.750 L 363.602 142.749 363.602 144.929 M111.085 147.013 C 111.505 147.084,111.848 147.220,111.848 147.315 C 111.848 147.410,111.974 147.488,112.127 147.488 C 112.483 147.488,113.934 148.240,113.934 148.425 C 113.934 148.502,114.147 148.662,114.408 148.781 C 114.668 148.899,114.882 149.122,114.882 149.274 C 114.882 149.427,115.054 149.673,115.264 149.820 C 115.666 150.102,116.543 152.112,116.686 153.081 C 117.046 155.523,116.878 159.240,116.399 159.399 C 116.294 159.434,116.209 159.581,116.209 159.725 C 116.209 160.098,115.600 161.327,115.415 161.327 C 115.330 161.327,115.261 161.445,115.261 161.589 C 115.261 161.934,113.790 163.221,113.128 163.455 C 112.841 163.556,112.607 163.702,112.607 163.780 C 112.607 164.301,104.397 164.744,103.902 164.250 C 103.670 164.017,103.781 149.376,104.017 149.231 C 104.140 149.154,104.329 148.863,104.435 148.584 C 104.541 148.305,104.866 147.925,105.157 147.739 C 105.449 147.554,105.730 147.349,105.782 147.284 C 106.136 146.842,109.159 146.688,111.085 147.013 M63.820 153.697 C 63.939 153.983,64.225 155.008,64.457 155.974 C 64.688 156.940,64.944 157.771,65.025 157.820 C 65.105 157.870,65.318 158.509,65.497 159.240 C 65.676 159.971,65.886 160.569,65.964 160.569 C 66.041 160.569,66.259 161.145,66.448 161.848 C 66.636 162.552,66.850 163.171,66.922 163.223 C 66.995 163.275,67.250 164.064,67.489 164.976 C 67.729 165.889,67.986 166.635,68.061 166.635 C 68.374 166.635,68.698 168.369,68.418 168.546 C 68.017 168.800,58.702 168.768,58.445 168.512 C 58.219 168.285,58.371 167.535,58.846 166.540 C 59.155 165.894,59.728 164.172,60.329 162.085 C 60.555 161.303,60.799 160.621,60.873 160.568 C 60.947 160.516,61.151 159.919,61.327 159.241 C 61.502 158.564,61.716 157.924,61.801 157.820 C 61.988 157.594,62.749 154.603,62.749 154.097 C 62.749 153.903,62.834 153.744,62.938 153.744 C 63.043 153.744,63.128 153.616,63.128 153.460 C 63.128 152.984,63.590 153.142,63.820 153.697 " stroke="none" fill="#fcfcfc" fill-rule="evenodd"></path><path id="path1" d="M141.991 65.333 C 136.637 65.606,133.270 65.863,133.270 65.998 C 133.270 66.088,133.029 66.161,132.735 66.161 C 131.982 66.161,128.645 66.747,128.531 66.899 C 128.479 66.969,127.796 67.183,127.014 67.376 C 126.232 67.569,125.422 67.830,125.213 67.957 C 125.005 68.084,124.386 68.336,123.839 68.517 C 123.291 68.698,122.844 68.924,122.844 69.020 C 122.844 69.116,122.714 69.194,122.557 69.194 C 122.399 69.194,122.122 69.276,121.941 69.376 C 121.120 69.827,118.706 70.900,118.511 70.900 C 118.392 70.900,118.294 70.969,118.294 71.054 C 118.294 71.138,117.953 71.357,117.536 71.541 C 117.118 71.725,116.777 71.951,116.777 72.043 C 116.777 72.135,116.402 72.376,115.943 72.579 C 115.485 72.782,114.909 73.127,114.664 73.346 C 114.419 73.565,114.049 73.893,113.842 74.076 C 113.477 74.399,112.973 74.730,112.437 75.000 C 112.292 75.073,111.825 75.503,111.399 75.955 C 110.974 76.407,110.538 76.778,110.431 76.779 C 110.324 76.780,109.812 77.249,109.293 77.821 C 108.774 78.394,108.279 78.863,108.194 78.863 C 108.109 78.863,107.145 79.758,106.053 80.853 C 104.961 81.948,104.005 82.845,103.929 82.846 C 103.786 82.848,99.573 87.138,97.479 89.413 C 94.778 92.348,94.076 93.081,93.964 93.081 C 93.899 93.081,93.345 93.571,92.732 94.171 C 91.513 95.363,91.227 95.607,90.237 96.298 C 89.872 96.553,89.462 96.915,89.326 97.101 C 89.189 97.288,88.952 97.441,88.798 97.441 C 88.645 97.441,88.470 97.568,88.410 97.724 C 88.350 97.880,87.969 98.194,87.563 98.423 C 87.157 98.651,86.825 98.894,86.825 98.963 C 86.825 99.033,86.462 99.249,86.019 99.445 C 85.576 99.640,85.171 99.850,85.118 99.911 C 84.857 100.216,82.352 101.445,81.608 101.632 C 81.141 101.750,80.758 101.907,80.758 101.982 C 80.758 102.057,80.055 102.269,79.194 102.453 C 78.334 102.638,77.427 102.886,77.178 103.004 C 76.508 103.323,68.022 103.306,67.915 102.986 C 67.871 102.855,67.582 102.749,67.273 102.749 C 66.500 102.749,64.076 102.184,64.076 102.003 C 64.076 101.923,63.521 101.707,62.844 101.524 C 62.166 101.340,61.611 101.132,61.611 101.062 C 61.611 100.991,61.142 100.726,60.569 100.474 C 59.995 100.221,59.526 99.949,59.526 99.869 C 59.526 99.789,59.193 99.553,58.785 99.345 C 58.378 99.138,58.015 98.901,57.980 98.820 C 57.944 98.739,57.578 98.502,57.167 98.294 C 56.756 98.085,56.231 97.744,56.000 97.536 C 55.237 96.845,54.900 96.594,54.319 96.282 C 53.634 95.914,50.497 92.748,49.964 91.886 C 49.757 91.552,49.479 91.211,49.344 91.128 C 49.210 91.045,49.100 90.853,49.100 90.703 C 49.100 90.553,48.929 90.323,48.720 90.193 C 48.512 90.063,48.341 89.870,48.341 89.765 C 48.341 89.549,46.581 87.773,46.367 87.773 C 46.291 87.773,46.110 87.654,45.965 87.509 C 45.820 87.364,44.952 87.142,44.036 87.017 C 43.119 86.891,42.180 86.698,41.949 86.588 C 40.876 86.077,35.786 87.014,35.547 87.767 C 34.837 90.004,36.435 90.989,41.358 91.345 C 42.879 91.455,43.874 91.614,44.073 91.778 C 45.281 92.777,46.528 94.023,46.865 94.567 C 47.343 95.341,47.576 95.615,49.288 97.418 C 50.018 98.188,50.616 98.892,50.616 98.982 C 50.616 99.073,50.682 99.147,50.762 99.147 C 50.842 99.147,51.300 99.509,51.780 99.953 C 53.924 101.930,56.296 103.695,56.811 103.696 C 56.934 103.696,57.147 103.807,57.285 103.942 C 57.423 104.076,57.834 104.304,58.199 104.449 C 58.564 104.593,59.003 104.853,59.175 105.027 C 59.346 105.202,60.050 105.506,60.738 105.703 C 61.427 105.900,61.991 106.121,61.991 106.193 C 61.991 106.265,62.481 106.466,63.081 106.640 C 63.680 106.815,64.221 107.039,64.283 107.139 C 64.395 107.318,66.605 107.790,68.246 107.984 C 68.716 108.039,69.273 108.168,69.486 108.271 C 70.501 108.760,77.485 108.101,79.459 107.329 C 79.735 107.221,80.012 107.185,80.075 107.247 C 80.138 107.310,80.190 107.272,80.190 107.162 C 80.190 107.052,80.509 106.902,80.900 106.830 C 81.940 106.638,83.033 106.278,83.033 106.128 C 83.033 106.057,83.497 105.864,84.064 105.699 C 84.631 105.534,85.207 105.289,85.344 105.154 C 85.481 105.019,85.976 104.756,86.445 104.570 C 86.914 104.384,87.340 104.175,87.393 104.106 C 87.445 104.037,87.829 103.811,88.246 103.604 C 88.664 103.397,89.337 102.992,89.744 102.704 C 90.151 102.416,90.546 102.180,90.622 102.180 C 90.766 102.180,91.622 101.411,93.586 99.516 C 94.228 98.896,94.809 98.389,94.875 98.389 C 95.088 98.389,107.596 85.794,107.730 85.445 C 107.801 85.261,108.008 85.053,108.191 84.982 C 108.374 84.912,109.104 84.274,109.813 83.565 C 110.523 82.855,111.164 82.275,111.239 82.275 C 111.313 82.275,111.630 82.021,111.943 81.710 C 112.256 81.400,112.938 80.801,113.460 80.381 C 113.981 79.960,114.536 79.500,114.692 79.359 C 114.848 79.217,115.254 78.960,115.592 78.788 C 115.931 78.615,116.209 78.395,116.209 78.298 C 116.209 78.201,116.518 77.975,116.897 77.795 C 117.275 77.616,117.783 77.271,118.026 77.028 C 118.268 76.786,118.595 76.588,118.752 76.588 C 118.910 76.588,119.119 76.437,119.218 76.253 C 119.317 76.069,119.725 75.800,120.125 75.655 C 120.526 75.510,120.938 75.285,121.043 75.155 C 121.147 75.025,121.915 74.569,122.749 74.142 C 123.583 73.715,124.360 73.287,124.476 73.193 C 124.592 73.098,125.232 72.873,125.898 72.693 C 126.564 72.513,127.296 72.250,127.526 72.109 C 127.755 71.968,128.778 71.707,129.800 71.529 C 130.823 71.351,131.701 71.149,131.754 71.082 C 131.806 71.014,132.616 70.903,133.555 70.836 C 134.493 70.768,136.397 70.630,137.786 70.528 C 139.175 70.426,141.201 70.332,142.290 70.317 C 143.378 70.303,144.315 70.215,144.373 70.122 C 144.508 69.903,289.421 69.896,289.556 70.114 C 289.611 70.203,290.491 70.325,291.511 70.385 C 293.649 70.510,296.114 70.908,296.114 71.129 C 296.114 71.212,296.311 71.280,296.553 71.280 C 296.795 71.280,297.627 71.452,298.401 71.663 C 299.176 71.874,300.621 72.263,301.611 72.527 C 302.602 72.791,303.441 73.087,303.476 73.186 C 303.510 73.284,303.617 73.365,303.713 73.365 C 303.809 73.365,304.327 73.577,304.863 73.835 L 305.838 74.306 306.209 73.883 C 306.671 73.356,306.591 71.304,306.089 70.801 C 305.920 70.632,305.782 70.415,305.782 70.318 C 305.782 70.093,304.277 68.626,304.047 68.626 C 303.952 68.626,303.258 68.327,302.506 67.962 C 301.753 67.597,300.839 67.243,300.474 67.176 C 300.109 67.109,299.768 66.996,299.716 66.925 C 299.603 66.770,295.992 66.161,295.190 66.161 C 294.881 66.161,294.600 66.086,294.566 65.993 C 294.352 65.427,152.225 64.812,141.991 65.333 " stroke="none" fill="#e5bd51" fill-rule="evenodd"></path></g></svg>